<svg xmlns="http://www.w3.org/2000/svg" id="b62454c0-0463-412a-9492-fabdb97c2bec" data-name="Layer 1" width="21" height="21" viewBox="0 0 21 21"><path id="a9b4ec56-f47e-4995-bb27-f770c3d572e7" data-name="Combined-Shape" d="M15.9967,0A5.008,5.008,0,0,1,21,5.0033V15.9967A5.008,5.008,0,0,1,15.9967,21H5.0033A5.008,5.008,0,0,1,0,15.9967V5.0033A5.008,5.008,0,0,1,5.0033,0ZM10.5,5.04a5.46,5.46,0,1,0,5.46,5.46A5.46,5.46,0,0,0,10.5,5.04Zm0,1.68A3.78,3.78,0,1,1,6.72,10.5,3.78,3.78,0,0,1,10.5,6.72Zm6.09-3.78a1.47,1.47,0,1,0,1.47,1.47A1.47,1.47,0,0,0,16.59,2.94Z" style="fill-rule:evenodd"></path></svg>